# xmcd
#
# Track frame offsets:
#	150
#	56827
#	95908
#	123093
#	151605
#	162655
#	197785
#
# Disc length: 3103 seconds
#
# Revision: 0
# Processed by: cddbd v1.5.2PL0 Copyright (c) Steve Scherf et al.
# Submitted via: EasyCDDAExtractor 9.0.0.1
#
DISCID=5b0c1d07
DTITLE=Various Artist - AntiArt
DYEAR=1999
DGENRE=Industrial
TTITLE0=Zweitschuldner  - Antihomophobc
TTITLE1=Zweitschuldner  - Pink Flash
TTITLE2=Zweitschuldner  - You Are - Were My Desire
TTITLE3=Xotox - Phantoms Of Earth
TTITLE4=Xotox - 	Gemini
TTITLE5=Xotox - Unreachable
TTITLE6=Xotox - Asmodis
EXTD=
EXTT0=
EXTT1=
EXTT2=
EXTT3=
EXTT4=
EXTT5=
EXTT6=
PLAYORDER=
